<?xml version="1.0" encoding="UTF-8" standalone="no"?>
<!-- Created with Inkscape (http://www.inkscape.org/) -->

<svg
   xmlns:dc="http://purl.org/dc/elements/1.1/"
   xmlns:cc="http://creativecommons.org/ns#"
   xmlns:rdf="http://www.w3.org/1999/02/22-rdf-syntax-ns#"
   xmlns:svg="http://www.w3.org/2000/svg"
   xmlns="http://www.w3.org/2000/svg"
   xmlns:sodipodi="http://sodipodi.sourceforge.net/DTD/sodipodi-0.dtd"
   xmlns:inkscape="http://www.inkscape.org/namespaces/inkscape"
   width="744.09448819"
   height="1052.3622047"
   id="svg2"
   version="1.1"
   inkscape:version="0.48.4 r9939"
   sodipodi:docname="icons.svg">
  <defs
     id="defs4" />
  <sodipodi:namedview
     id="base"
     pagecolor="#ffffff"
     bordercolor="#666666"
     borderopacity="1.0"
     inkscape:pageopacity="0.0"
     inkscape:pageshadow="2"
     inkscape:zoom="0.98994949"
     inkscape:cx="377.74761"
     inkscape:cy="294.70168"
     inkscape:document-units="px"
     inkscape:current-layer="layer1"
     showgrid="false"
     inkscape:window-width="1920"
     inkscape:window-height="1056"
     inkscape:window-x="1920"
     inkscape:window-y="24"
     inkscape:window-maximized="1"
     showguides="true"
     inkscape:guide-bbox="true" />
  <metadata
     id="metadata7">
    <rdf:RDF>
      <cc:Work
         rdf:about="">
        <dc:format>image/svg+xml</dc:format>
        <dc:type
           rdf:resource="http://purl.org/dc/dcmitype/StillImage" />
        <dc:title></dc:title>
      </cc:Work>
    </rdf:RDF>
  </metadata>
  <g
     inkscape:label="Layer 1"
     inkscape:groupmode="layer"
     id="layer1">
    <rect
       style="color:#000000;fill:#545454;fill-opacity:0.54325256;fill-rule:nonzero;stroke:none;stroke-width:1.5;marker:none;visibility:visible;display:inline;overflow:visible;enable-background:accumulate"
       id="rect3757"
       width="90.24511"
       height="155.72392"
       x="555.72839"
       y="224.66095"
       ry="10.426045" />
    <rect
       style="color:#000000;fill:#545454;fill-opacity:0.54325256;fill-rule:nonzero;stroke:none;stroke-width:1.5;marker:none;visibility:visible;display:inline;overflow:visible;enable-background:accumulate"
       id="rect2985"
       width="66.316475"
       height="120.29214"
       x="567.00903"
       y="240.72733" />
    <path
       sodipodi:type="arc"
       style="color:#000000;fill:#545454;fill-opacity:0.54325256;fill-rule:nonzero;stroke:none;stroke-width:1.5;marker:none;visibility:visible;display:inline;overflow:visible;enable-background:accumulate"
       id="path3759"
       sodipodi:cx="57.67857"
       sodipodi:cy="210.75504"
       sodipodi:rx="5.1785712"
       sodipodi:ry="5.1785712"
       d="m 62.857141,210.75504 a 5.1785712,5.1785712 0 1 1 -1.4e-5,-0.0118 l -5.178557,0.0118 z"
       sodipodi:start="0"
       sodipodi:end="6.2808995"
       transform="matrix(0.95714505,0,0,0.95714505,544.7896,169.07332)" />
    <rect
       style="color:#000000;fill:#545454;fill-opacity:0.54325256;fill-rule:nonzero;stroke:none;stroke-width:1.5;marker:none;visibility:visible;display:inline;overflow:visible;enable-background:accumulate"
       id="rect3761"
       width="27.347"
       height="3.0765376"
       x="586.89783"
       y="232.5647"
       ry="1.5382688" />
    <rect
       style="color:#000000;fill:#545454;fill-opacity:0.54325256;fill-rule:nonzero;stroke:none;stroke-width:1.5;marker:none;visibility:visible;display:inline;overflow:visible;enable-background:accumulate"
       id="rect3757-1"
       width="199.44933"
       height="144.53273"
       x="711.36932"
       y="161.78546"
       ry="9.6767712" />
    <rect
       style="color:#000000;fill:#545454;fill-opacity:0.54325256;fill-rule:nonzero;stroke:none;stroke-width:1.5;marker:none;visibility:visible;display:inline;overflow:visible;enable-background:accumulate"
       id="rect2985-2"
       width="175.61537"
       height="115.29392"
       x="722.41663"
       y="179.09229" />
    <rect
       style="color:#000000;fill:#545454;fill-opacity:0.54325256;fill-rule:nonzero;stroke:none;stroke-width:1.5;marker:none;visibility:visible;display:inline;overflow:visible;enable-background:accumulate"
       id="rect3761-0"
       width="44.07555"
       height="3.3140702"
       x="790.44568"
       y="169.228"
       ry="1.6570351" />
    <path
       style="color:#000000;fill:#000000;fill-opacity:1;fill-rule:nonzero;stroke:none;stroke-width:1.5;marker:none;visibility:visible;display:inline;overflow:visible;enable-background:accumulate"
       d="m -146.44695,194.10378 c -1.4525,6.16225 -1.84779,11.92805 -1.96429,17.58929 12.90081,2.84385 24.85448,1.83597 37.09056,1.68111 2.18167,-6.14097 1.88614,-12.54269 0.89285,-19.01786 z"
       id="path3953"
       inkscape:connector-curvature="0"
       sodipodi:nodetypes="ccccc" />
    <path
       sodipodi:type="arc"
       style="color:#000000;fill:#828282;fill-opacity:0.54325256;fill-rule:nonzero;stroke:none;stroke-width:1.5;marker:none;visibility:visible;display:inline;overflow:visible;enable-background:accumulate"
       id="path3972"
       sodipodi:cx="177.23215"
       sodipodi:cy="324.77289"
       sodipodi:rx="4.9107141"
       sodipodi:ry="4.9107141"
       d="m 182.14286,324.77289 a 4.9107141,4.9107141 0 1 1 -1e-5,-0.0112 l -4.9107,0.0112 z"
       sodipodi:start="0"
       sodipodi:end="6.2808995"
       transform="matrix(1.1818182,0,0,1.1818182,-342.46246,-180.56379)" />
    <rect
       style="color:#000000;fill:#545454;fill-opacity:0.54325256;fill-rule:nonzero;stroke:none;stroke-width:1.5;marker:none;visibility:visible;display:inline;overflow:visible;enable-background:accumulate"
       id="rect3976"
       width="33.57143"
       height="17.410715"
       x="-111.22057"
       y="195.75879"
       ry="0" />
    <path
       style="color:#000000;fill:#131313;fill-opacity:0.54325256;fill-rule:nonzero;stroke:none;stroke-width:1.5;marker:none;visibility:visible;display:inline;overflow:visible;enable-background:accumulate"
       d="m -145.9527,194.33017 c 0.40623,-1.70519 -0.45322,-3.42848 1.96428,-5.35715 l 39.73215,-0.35714 62.678577,0.89286 96.875,-1.25 21.69643,0.80357 18.57143,4.375 c 0.9642,1.93365 1.41117,3.71952 0.71428,5.17857 l -24.28571,-4.19643 -50.08929,-0.35714 -37.41071,-0.0893 -50.71429,0.26786 z"
       id="path3978"
       inkscape:connector-curvature="0"
       sodipodi:nodetypes="ccccccccccccc" />
    <path
       style="color:#000000;fill:#131313;fill-opacity:0.54325256;fill-rule:nonzero;stroke:none;stroke-width:1.5;marker:none;visibility:visible;display:inline;overflow:visible;enable-background:accumulate"
       d="m -66.617693,194.07788 c 8.59587,4.81774 9.82566,7.15226 12.2481,11.67989 1.62111,4.87888 1.81311,8.1841 1.13642,12.94258 l -1.6415,5.1139 c -0.0117,0.1625 -0.45244,0.11052 -1.13642,-0.0631 l -3.34613,7.82868 c -1.47314,0.52702 -2.4412,2.37476 -3.91434,-1.38896 l 4.98763,-12.62691 c 1.34438,-0.50546 2.50593,-0.52337 3.34613,0.31567 0.98289,-3.68949 1.34544,-7.4888 -0.50508,-11.67989 -2.97167,-7.31491 -8.35681,-9.10839 -13.95273,-11.86929 z"
       id="path3997"
       inkscape:connector-curvature="0"
       sodipodi:nodetypes="cccccccccccc" />
    <path
       style="color:#000000;fill:#131313;fill-opacity:0.54325256;fill-rule:nonzero;stroke:none;stroke-width:1.5;marker:none;visibility:visible;display:inline;overflow:visible;enable-background:accumulate"
       d="m -19.335713,193.74463 c -8.59587,4.81774 -9.82566,7.15226 -12.2481,11.67989 -1.62111,4.87888 -1.81311,8.1841 -1.13642,12.94258 l 1.6415,5.1139 c 0.0117,0.1625 0.45244,0.11052 1.13642,-0.0631 l 3.34613,7.82868 c 1.47314,0.52702 2.4412,2.37476 3.91434,-1.38896 l -4.98763,-12.62691 c -1.34438,-0.50546 -2.50593,-0.52337 -3.34613,0.31567 -0.98289,-3.68949 -1.34544,-7.4888 0.50508,-11.67989 2.97167,-7.31491 8.35681,-9.10839 13.95273,-11.86929 z"
       id="path3997-3"
       inkscape:connector-curvature="0"
       sodipodi:nodetypes="cccccccccccc" />
    <rect
       style="color:#000000;fill:#545454;fill-opacity:0.54325256;fill-rule:nonzero;stroke:none;stroke-width:1.5;marker:none;visibility:visible;display:inline;overflow:visible;enable-background:accumulate"
       id="rect3757-9"
       width="62.142864"
       height="66.267685"
       x="150.55034"
       y="267.72256"
       ry="4.4367614" />
    <rect
       style="color:#000000;fill:#545454;fill-opacity:0.54325256;fill-rule:nonzero;stroke:none;stroke-width:1.5;marker:none;visibility:visible;display:inline;overflow:visible;enable-background:accumulate"
       id="rect2985-3"
       width="52.321426"
       height="59.2495"
       x="155.37181"
       y="271.0531" />
    <rect
       style="color:#000000;fill:#828282;fill-opacity:0.54325256;fill-rule:nonzero;stroke:none;stroke-width:1.5;marker:none;visibility:visible;display:inline;overflow:visible;enable-background:accumulate"
       id="rect4088"
       width="3.75"
       height="6.9642859"
       x="146.73723"
       y="280.89075" />
    <path
       style="color:#000000;fill:#131313;fill-opacity:0.54325256;fill-rule:nonzero;stroke:none;stroke-width:1.5;marker:none;visibility:visible;display:inline;overflow:visible;enable-background:accumulate"
       d="m 205.1457,265.97753 0,-8.46002 c -2.86696,-2.09273 -6.33387,-3.63768 -7.38675,-7.38674 l -1.19955,-19.63484 c -13.70073,-3.12025 -14.48119,-3.15046 -30.80965,0 l -1.38896,19.1929 c -1.57827,3.44913 -4.17115,5.65818 -7.26048,7.26047 l 0,9.0598 z"
       id="path4090"
       inkscape:connector-curvature="0"
       sodipodi:nodetypes="ccccccccc" />
    <path
       style="color:#000000;fill:#131313;fill-opacity:0.54325256;fill-rule:nonzero;stroke:none;stroke-width:1.5;marker:none;visibility:visible;display:inline;overflow:visible;enable-background:accumulate"
       d="m 204.93012,335.52706 0,8.46003 c -2.86696,2.09273 -6.33387,3.63768 -7.38675,7.38674 l -1.19955,19.63484 c -13.70073,3.12026 -14.48119,3.15046 -30.80965,0 l -1.38896,-19.19289 c -1.57827,-3.44914 -4.17115,-5.65819 -7.26048,-7.26048 l 0,-9.05981 z"
       id="path4090-7"
       inkscape:connector-curvature="0"
       sodipodi:nodetypes="ccccccccc" />
    <path
       style="fill:none;stroke:#8b8b8b;stroke-width:13.74866676;stroke-linecap:butt;stroke-linejoin:miter;stroke-miterlimit:4;stroke-opacity:1;stroke-dasharray:none"
       d="m 312.75675,211.84498 147.88481,-1.44418 c 38.3081,-14.37633 29.25371,-60.36741 -1.44418,-67.29915 6.40004,-41.00543 -56.74062,-89.070092 -90.98382,-25.99537 -29.83611,-5.8626 -38.27319,9.09616 -45.05866,25.70654 -50.98355,-3.78245 -52.36023,57.89976 -10.39815,69.03216 z"
       id="path3016"
       inkscape:connector-curvature="0"
       sodipodi:nodetypes="cccccc" />
    <path
       style="fill:none;stroke:#ececec;stroke-width:10;stroke-linecap:butt;stroke-linejoin:miter;stroke-miterlimit:0;stroke-opacity:1;stroke-dasharray:20, 10;stroke-dashoffset:0"
       d="m 221.51784,296.40397 c 0,0 141.34904,2.56819 141.25,-1.25 -0.0957,-3.68933 -0.71429,-74.10715 -0.71429,-74.10715"
       id="path3786-4-0"
       inkscape:connector-curvature="0"
       sodipodi:nodetypes="csc" />
    <path
       style="fill:none;stroke:#ececec;stroke-width:10;stroke-linecap:butt;stroke-linejoin:miter;stroke-miterlimit:0;stroke-opacity:1;stroke-dasharray:20, 10;stroke-dashoffset:0"
       d="m 549.91074,295.68969 c 0,0 -141.34904,2.56819 -141.25,-1.25 0.0957,-3.68933 0.71429,-74.10715 0.71429,-74.10715"
       id="path3786-4-0-3"
       inkscape:connector-curvature="0"
       sodipodi:nodetypes="csc" />
    <path
       style="fill:none;stroke:#ececec;stroke-width:10;stroke-linecap:butt;stroke-linejoin:miter;stroke-opacity:1;color:#000000;stroke-miterlimit:0;stroke-dasharray:20, 10;stroke-dashoffset:0;marker:none;visibility:visible;display:inline;overflow:visible;enable-background:accumulate"
       d="m 111.42857,194.50504 157.85715,0"
       id="path3860"
       inkscape:connector-curvature="0" />
    <path
       style="color:#000000;fill:none;stroke:#ececec;stroke-width:10;stroke-linecap:butt;stroke-linejoin:miter;stroke-miterlimit:0;stroke-opacity:1;stroke-dasharray:20, 10;stroke-dashoffset:0;marker:none;visibility:visible;display:inline;overflow:visible;enable-background:accumulate"
       d="m 501.78571,188.07646 198.57144,0"
       id="path3860-6"
       inkscape:connector-curvature="0"
       sodipodi:nodetypes="cc" />
    <rect
       style="color:#000000;fill:#4f94d0;fill-opacity:1;fill-rule:nonzero;stroke:none;stroke-width:1.50000000000000000;marker:none;visibility:visible;display:inline;overflow:visible;enable-background:accumulate"
       id="rect3757-90"
       width="90.24511"
       height="155.72392"
       x="571.51465"
       y="667.12396"
       ry="10.426045"
       inkscape:export-filename="/home/tverbele/Desktop/cloud.png"
       inkscape:export-xdpi="89.825783"
       inkscape:export-ydpi="89.825783" />
    <rect
       style="color:#000000;fill:#357ebd;fill-opacity:1;fill-rule:nonzero;stroke:none;stroke-width:1.50000000000000000;marker:none;visibility:visible;display:inline;overflow:visible;enable-background:accumulate"
       id="rect2985-7"
       width="66.316475"
       height="120.29214"
       x="582.79523"
       y="683.19031"
       inkscape:export-filename="/home/tverbele/Desktop/cloud.png"
       inkscape:export-xdpi="89.825783"
       inkscape:export-ydpi="89.825783" />
    <path
       sodipodi:type="arc"
       style="color:#000000;fill:#357ebd;fill-opacity:1;fill-rule:nonzero;stroke:none;stroke-width:1.56716059;marker:none;visibility:visible;display:inline;overflow:visible;enable-background:accumulate"
       id="path3759-6"
       sodipodi:cx="57.67857"
       sodipodi:cy="210.75504"
       sodipodi:rx="5.1785712"
       sodipodi:ry="5.1785712"
       d="m 62.857141,210.75504 a 5.1785712,5.1785712 0 1 1 -1.4e-5,-0.0118 l -5.178557,0.0118 z"
       sodipodi:start="0"
       sodipodi:end="6.2808995"
       transform="matrix(0.95714505,0,0,0.95714505,560.57583,611.5363)"
       inkscape:export-filename="/home/tverbele/Desktop/cloud.png"
       inkscape:export-xdpi="89.825783"
       inkscape:export-ydpi="89.825783" />
    <rect
       style="color:#000000;fill:#357ebd;fill-opacity:1;fill-rule:nonzero;stroke:none;stroke-width:1.50000000000000000;marker:none;visibility:visible;display:inline;overflow:visible;enable-background:accumulate"
       id="rect3761-2"
       width="27.347"
       height="3.0765376"
       x="602.68402"
       y="675.02771"
       ry="1.5382688"
       inkscape:export-filename="/home/tverbele/Desktop/cloud.png"
       inkscape:export-xdpi="89.825783"
       inkscape:export-ydpi="89.825783" />
    <rect
       style="color:#000000;fill:#4f94d0;fill-opacity:1;fill-rule:nonzero;stroke:none;stroke-width:1.50000000000000000;marker:none;visibility:visible;display:inline;overflow:visible;enable-background:accumulate"
       id="rect3757-1-2"
       width="199.44933"
       height="144.53273"
       x="727.15558"
       y="604.24847"
       ry="9.6767712"
       inkscape:export-filename="/home/tverbele/Desktop/cloud.png"
       inkscape:export-xdpi="89.825783"
       inkscape:export-ydpi="89.825783" />
    <rect
       style="color:#000000;fill:#357ebd;fill-opacity:1;fill-rule:nonzero;stroke:none;stroke-width:1.50000000000000000;marker:none;visibility:visible;display:inline;overflow:visible;enable-background:accumulate"
       id="rect2985-2-2"
       width="175.61537"
       height="115.29392"
       x="738.20282"
       y="621.5553"
       inkscape:export-filename="/home/tverbele/Desktop/cloud.png"
       inkscape:export-xdpi="89.825783"
       inkscape:export-ydpi="89.825783" />
    <rect
       style="color:#000000;fill:#357ebd;fill-opacity:1;fill-rule:nonzero;stroke:none;stroke-width:1.50000000000000000;marker:none;visibility:visible;display:inline;overflow:visible;enable-background:accumulate"
       id="rect3761-0-0"
       width="44.07555"
       height="3.3140702"
       x="806.23187"
       y="611.69098"
       ry="1.6570351"
       inkscape:export-filename="/home/tverbele/Desktop/cloud.png"
       inkscape:export-xdpi="89.825783"
       inkscape:export-ydpi="89.825783" />
    <path
       style="color:#000000;fill:#000000;fill-opacity:1;fill-rule:nonzero;stroke:none;stroke-width:1.5;marker:none;visibility:visible;display:inline;overflow:visible;enable-background:accumulate"
       d="m -130.66071,636.56676 c -1.4525,6.16225 -1.84779,11.92805 -1.96429,17.58929 12.90081,2.84385 24.85448,1.83597 37.090561,1.68111 2.18167,-6.14097 1.88614,-12.54269 0.89285,-19.01786 z"
       id="path3953-5"
       inkscape:connector-curvature="0"
       sodipodi:nodetypes="ccccc"
       inkscape:export-filename="/home/tverbele/Desktop/cloud.png"
       inkscape:export-xdpi="89.825783"
       inkscape:export-ydpi="89.825783" />
    <path
       sodipodi:type="arc"
       style="color:#000000;fill:#357ebd;fill-opacity:1;fill-rule:nonzero;stroke:none;stroke-width:1.26923075;marker:none;visibility:visible;display:inline;overflow:visible;enable-background:accumulate"
       id="path3972-0"
       sodipodi:cx="177.23215"
       sodipodi:cy="324.77289"
       sodipodi:rx="4.9107141"
       sodipodi:ry="4.9107141"
       d="m 182.14286,324.77289 a 4.9107141,4.9107141 0 1 1 -1e-5,-0.0112 l -4.9107,0.0112 z"
       sodipodi:start="0"
       sodipodi:end="6.2808995"
       transform="matrix(1.1818182,0,0,1.1818182,-326.67622,261.89919)"
       inkscape:export-filename="/home/tverbele/Desktop/cloud.png"
       inkscape:export-xdpi="89.825783"
       inkscape:export-ydpi="89.825783" />
    <rect
       style="color:#000000;fill:#4f94d0;fill-opacity:1;fill-rule:nonzero;stroke:none;stroke-width:1.50000000000000000;marker:none;visibility:visible;display:inline;overflow:visible;enable-background:accumulate"
       id="rect3976-7"
       width="33.57143"
       height="17.410715"
       x="-95.434326"
       y="638.2218"
       ry="0"
       inkscape:export-filename="/home/tverbele/Desktop/cloud.png"
       inkscape:export-xdpi="89.825783"
       inkscape:export-ydpi="89.825783" />
    <path
       style="color:#000000;fill:#357ebd;fill-opacity:1;fill-rule:nonzero;stroke:none;stroke-width:1.50000000000000000;marker:none;visibility:visible;display:inline;overflow:visible;enable-background:accumulate"
       d="m -130.16646,636.79315 c 0.40623,-1.70519 -0.45322,-3.42848 1.96428,-5.35715 l 39.732151,-0.35714 62.67858,0.89286 96.875,-1.25 21.69643,0.80357 18.571429,4.375 c 0.9642,1.93365 1.41117,3.71952 0.71428,5.17857 l -24.285709,-4.19643 -50.08929,-0.35714 -37.4107097,-0.0893 -50.7142903,0.26786 z"
       id="path3978-4"
       inkscape:connector-curvature="0"
       sodipodi:nodetypes="ccccccccccccc"
       inkscape:export-filename="/home/tverbele/Desktop/cloud.png"
       inkscape:export-xdpi="89.825783"
       inkscape:export-ydpi="89.825783" />
    <path
       style="color:#000000;fill:#357ebd;fill-opacity:1;fill-rule:nonzero;stroke:none;stroke-width:1.50000000000000000;marker:none;visibility:visible;display:inline;overflow:visible;enable-background:accumulate"
       d="m -50.831449,636.54086 c 8.59587,4.81774 9.82566,7.15226 12.2481,11.67989 1.62111,4.87888 1.81311,8.1841 1.13642,12.94258 l -1.6415,5.1139 c -0.0117,0.1625 -0.45244,0.11052 -1.13642,-0.0631 l -3.34613,7.82868 c -1.47314,0.52702 -2.4412,2.37476 -3.91434,-1.38896 l 4.98763,-12.62691 c 1.34438,-0.50546 2.50593,-0.52337 3.34613,0.31567 0.98289,-3.68949 1.34544,-7.4888 -0.50508,-11.67989 -2.97167,-7.31491 -8.35681,-9.10839 -13.95273,-11.86929 z"
       id="path3997-8"
       inkscape:connector-curvature="0"
       sodipodi:nodetypes="cccccccccccc"
       inkscape:export-filename="/home/tverbele/Desktop/cloud.png"
       inkscape:export-xdpi="89.825783"
       inkscape:export-ydpi="89.825783" />
    <path
       style="color:#000000;fill:#357ebd;fill-opacity:1;fill-rule:nonzero;stroke:none;stroke-width:1.50000000000000000;marker:none;visibility:visible;display:inline;overflow:visible;enable-background:accumulate"
       d="m -3.5494687,636.20761 c -8.5958703,4.81774 -9.8256603,7.15226 -12.2481003,11.67989 -1.62111,4.87888 -1.81311,8.1841 -1.13642,12.94258 l 1.6415,5.1139 c 0.0117,0.1625 0.45244,0.11052 1.13642,-0.0631 l 3.34613,7.82868 c 1.4731403,0.52702 2.4412003,2.37476 3.9143403,-1.38896 l -4.9876303,-12.62691 c -1.34438,-0.50546 -2.50593,-0.52337 -3.34613,0.31567 -0.98289,-3.68949 -1.34544,-7.4888 0.50508,-11.67989 2.97167,-7.31491 8.3568103,-9.10839 13.9527303,-11.86929 z"
       id="path3997-3-3"
       inkscape:connector-curvature="0"
       sodipodi:nodetypes="cccccccccccc"
       inkscape:export-filename="/home/tverbele/Desktop/cloud.png"
       inkscape:export-xdpi="89.825783"
       inkscape:export-ydpi="89.825783" />
    <rect
       style="color:#000000;fill:#4f94d0;fill-opacity:1;fill-rule:nonzero;stroke:none;stroke-width:1.50000000000000000;marker:none;visibility:visible;display:inline;overflow:visible;enable-background:accumulate"
       id="rect3757-9-0"
       width="62.142864"
       height="66.267685"
       x="166.33655"
       y="710.18555"
       ry="4.4367614"
       inkscape:export-filename="/home/tverbele/Desktop/cloud.png"
       inkscape:export-xdpi="89.825783"
       inkscape:export-ydpi="89.825783" />
    <rect
       style="color:#000000;fill:#357ebd;fill-opacity:1;fill-rule:nonzero;stroke:none;stroke-width:1.50000000000000000;marker:none;visibility:visible;display:inline;overflow:visible;enable-background:accumulate"
       id="rect2985-3-7"
       width="52.321426"
       height="59.2495"
       x="171.15802"
       y="713.51611"
       inkscape:export-filename="/home/tverbele/Desktop/cloud.png"
       inkscape:export-xdpi="89.825783"
       inkscape:export-ydpi="89.825783" />
    <rect
       style="color:#000000;fill:#4f94d0;fill-opacity:1;fill-rule:nonzero;stroke:none;stroke-width:1.50000000000000000;marker:none;visibility:visible;display:inline;overflow:visible;enable-background:accumulate"
       id="rect4088-0"
       width="3.75"
       height="6.9642859"
       x="162.52344"
       y="723.35376"
       inkscape:export-filename="/home/tverbele/Desktop/cloud.png"
       inkscape:export-xdpi="89.825783"
       inkscape:export-ydpi="89.825783" />
    <path
       style="color:#000000;fill:#357ebd;fill-opacity:1;fill-rule:nonzero;stroke:none;stroke-width:1.50000000000000000;marker:none;visibility:visible;display:inline;overflow:visible;enable-background:accumulate"
       d="m 220.93194,708.44051 0,-8.46002 c -2.86696,-2.09273 -6.33387,-3.63768 -7.38675,-7.38674 l -1.19955,-19.63484 c -13.70073,-3.12025 -14.48119,-3.15046 -30.80965,0 l -1.38896,19.1929 c -1.57827,3.44913 -4.17115,5.65818 -7.26048,7.26047 l 0,9.0598 z"
       id="path4090-8"
       inkscape:connector-curvature="0"
       sodipodi:nodetypes="ccccccccc"
       inkscape:export-filename="/home/tverbele/Desktop/cloud.png"
       inkscape:export-xdpi="89.825783"
       inkscape:export-ydpi="89.825783" />
    <path
       style="color:#000000;fill:#357ebd;fill-opacity:1;fill-rule:nonzero;stroke:none;stroke-width:1.50000000000000000;marker:none;visibility:visible;display:inline;overflow:visible;enable-background:accumulate"
       d="m 220.71636,777.99004 0,8.46003 c -2.86696,2.09273 -6.33387,3.63768 -7.38675,7.38674 l -1.19955,19.63484 c -13.70073,3.12026 -14.48119,3.15046 -30.80965,0 l -1.38896,-19.19289 c -1.57827,-3.44914 -4.17115,-5.65819 -7.26048,-7.26048 l 0,-9.05981 z"
       id="path4090-7-4"
       inkscape:connector-curvature="0"
       sodipodi:nodetypes="ccccccccc"
       inkscape:export-filename="/home/tverbele/Desktop/cloud.png"
       inkscape:export-xdpi="89.825783"
       inkscape:export-ydpi="89.825783" />
    <path
       style="fill:#4f94d0;stroke:#428bca;stroke-width:13.74900000000000055;stroke-linecap:butt;stroke-linejoin:miter;stroke-miterlimit:4;stroke-opacity:1;stroke-dasharray:none;fill-opacity:1"
       d="m 328.54299,654.30796 147.88481,-1.44418 c 38.3081,-14.37633 29.25371,-60.36741 -1.44418,-67.29915 6.40004,-41.00543 -56.74062,-89.07009 -90.98382,-25.99537 -29.83611,-5.8626 -38.27319,9.09616 -45.05866,25.70654 -50.98355,-3.78245 -52.36023,57.89976 -10.39815,69.03216 z"
       id="path3016-7"
       inkscape:connector-curvature="0"
       sodipodi:nodetypes="cccccc"
       inkscape:export-filename="/home/tverbele/Desktop/cloud.png"
       inkscape:export-xdpi="89.825783"
       inkscape:export-ydpi="89.825783" />
    <path
       style="fill:none;stroke:#b6d4f4;stroke-width:10;stroke-linecap:butt;stroke-linejoin:miter;stroke-miterlimit:0;stroke-opacity:1;stroke-dasharray:20, 10;stroke-dashoffset:0;color:#000000;marker:none;visibility:visible;display:inline;overflow:visible;enable-background:accumulate"
       d="m 237.30408,738.86695 c 0,0 141.34904,2.56819 141.25,-1.25 -0.0957,-3.68933 -0.71429,-74.10715 -0.71429,-74.10715"
       id="path3786-4-0-9"
       inkscape:connector-curvature="0"
       sodipodi:nodetypes="csc"
       inkscape:export-filename="/home/tverbele/Desktop/cloud.png"
       inkscape:export-xdpi="89.825783"
       inkscape:export-ydpi="89.825783" />
    <path
       style="fill:none;stroke:#b6d4f4;stroke-width:10;stroke-linecap:butt;stroke-linejoin:miter;stroke-miterlimit:0;stroke-opacity:1;stroke-dasharray:20, 10;stroke-dashoffset:0;color:#000000;marker:none;visibility:visible;display:inline;overflow:visible;enable-background:accumulate"
       d="m 565.69693,738.15267 c 0,0 -141.34899,2.56819 -141.24995,-1.25 0.0957,-3.68933 0.71429,-74.10715 0.71429,-74.10715"
       id="path3786-4-0-3-8"
       inkscape:connector-curvature="0"
       sodipodi:nodetypes="csc"
       inkscape:export-filename="/home/tverbele/Desktop/cloud.png"
       inkscape:export-xdpi="89.825783"
       inkscape:export-ydpi="89.825783" />
    <path
       style="color:#000000;fill:none;stroke:#b6d4f4;stroke-width:10;stroke-linecap:butt;stroke-linejoin:miter;stroke-miterlimit:0;stroke-opacity:1;stroke-dasharray:20, 10;stroke-dashoffset:0;marker:none;visibility:visible;display:inline;overflow:visible;enable-background:accumulate"
       d="m 127.21481,636.96802 157.85715,0"
       id="path3860-64"
       inkscape:connector-curvature="0"
       inkscape:export-filename="/home/tverbele/Desktop/cloud.png"
       inkscape:export-xdpi="89.825783"
       inkscape:export-ydpi="89.825783" />
    <path
       style="color:#000000;fill:none;stroke:#b6d4f4;stroke-width:10;stroke-linecap:butt;stroke-linejoin:miter;stroke-miterlimit:0;stroke-opacity:1;stroke-dasharray:20, 10;stroke-dashoffset:0;marker:none;visibility:visible;display:inline;overflow:visible;enable-background:accumulate"
       d="m 517.57195,630.53944 198.57148,0"
       id="path3860-6-0"
       inkscape:connector-curvature="0"
       sodipodi:nodetypes="cc"
       inkscape:export-filename="/home/tverbele/Desktop/cloud.png"
       inkscape:export-xdpi="89.825783"
       inkscape:export-ydpi="89.825783" />
  </g>
</svg>
